<!-- Generator: Adobe Illustrator 25.0.0, SVG Export Plug-In  -->
<svg version="1.1" xmlns="http://www.w3.org/2000/svg" xmlns:xlink="http://www.w3.org/1999/xlink" x="0px" y="0px" width="406px"
	 height="406px" viewBox="0 0 406 406" style="overflow:visible;enable-background:new 0 0 406 406;" xml:space="preserve">
<style type="text/css">
	.st0{fill:#31AB65;}
</style>
<defs>
</defs>
<path class="st0" d="M368.9,272.3c-25.4-16-54.7-24.5-84.7-24.5c-1.1,0-2.1,0-3.2,0c34.5-27.1,59.1-65.6,69-108.7
	c0.5-2.2-0.2-4.5-1.7-6c-1.6-1.6-3.9-2.2-6-1.8c-35.6,8-68,25.7-93.8,51.4c-2,1.9-3.9,3.9-5.7,6c1.7-11.4,2.5-23,2.5-34.6
	c0-45.1-12.7-89.1-36.8-127.2c-1.2-1.9-3.3-3-5.5-3s-4.3,1.1-5.5,3C173.4,65,160.7,109,160.7,154.1c0,11.6,0.9,23.2,2.5,34.6
	c-1.9-2-3.8-4-5.7-6c-25.8-25.7-58.2-43.5-93.8-51.4c-2.2-0.5-4.5,0.2-6,1.8c-1.6,1.6-2.2,3.9-1.7,6c9.8,43.1,34.5,81.6,69,108.7
	c-1.1,0-2.1,0-3.2,0c-30,0-59.3,8.5-84.7,24.5c-1.9,1.2-3,3.3-3,5.5s1.1,4.3,3,5.5c24.4,15.4,51.9,23.7,80.3,24.5
	c-6.3,7-11.7,14.7-16.1,23.2c-1,2-1,4.4,0.2,6.3c1.1,1.9,3.2,3.1,5.4,3.2c1.2,0,2.4,0.1,3.7,0.1c33.5,0,65.1-15.4,85.9-41v63.6
	c0,3.6,2.9,6.5,6.5,6.5s6.5-2.9,6.5-6.5v-63.6c20.8,25.6,52.4,41,85.9,41c1.2,0,2.4,0,3.7-0.1c2.2-0.1,4.3-1.3,5.4-3.2
	c1.1-1.9,1.2-4.3,0.2-6.3c-4.4-8.5-9.8-16.3-16.1-23.2c28.3-0.8,56.4-9.3,80.4-24.4c1.9-1.2,3-3.3,3-5.5S370.8,273.5,368.9,272.3z
	 M257.7,192c21.5-21.4,47.9-36.9,77-45.3c-12.8,43.8-42.1,81.5-81.7,104.6c-11.5,6.7-23.6,12.1-36.3,16.1
	c8.7-16.1,15.5-33.1,20.3-50.6C243,207.9,250,199.6,257.7,192z M203,43.1c19.2,33.8,29.3,72,29.3,111.1c0,39-10.1,77.2-29.3,111.1
	c-19.2-33.8-29.3-72-29.3-111.1S183.8,76.9,203,43.1z M71.4,146.7c29,8.4,55.5,23.9,77,45.3c7.6,7.6,14.6,15.9,20.8,24.8
	c4.8,17.5,11.6,34.5,20.3,50.6c-12.7-4-24.8-9.4-36.3-16.1C113.5,228.2,84.2,190.5,71.4,146.7z M121.8,260.8
	c8.7,0,17.3,0.8,25.8,2.3c12.1,7,25,12.6,38.3,16.8c-16.3,8-34.1,12.9-52.2,14.4c-0.1,0-0.3,0-0.4,0c-27.9,2.2-55.3-3.5-79.8-16.5
	C74.5,266.7,97.9,260.8,121.8,260.8z M118.7,327.2c5.1-7.5,11.1-14.2,18.1-20.1c15.7-1.5,31.2-5.4,45.9-11.5
	C166.2,313.6,143.3,325.1,118.7,327.2z M223.3,295.6c14.6,6.1,30.1,10,45.9,11.5c7,5.9,13.1,12.6,18.1,20.1
	C262.7,325.1,239.8,313.6,223.3,295.6z M272.7,294.4c-0.1,0-0.3,0-0.4,0c-18.1-1.5-35.8-6.4-52.2-14.4c13.3-4.2,26.2-9.8,38.3-16.8
	c8.4-1.5,17.1-2.3,25.8-2.3c23.9,0,47.3,5.9,68.3,17C328,290.9,300.6,296.6,272.7,294.4z M203,0C91.1,0,0,91.1,0,203
	s91.1,203,203,203s203-91.1,203-203S314.9,0,203,0z M203,393C98.2,393,13,307.8,13,203S98.2,13,203,13s190,85.2,190,190
	S307.8,393,203,393z"/>
</svg>
