<?xml version="1.0" standalone="no"?>
<!DOCTYPE svg PUBLIC "-//W3C//DTD SVG 20010904//EN"
 "http://www.w3.org/TR/2001/REC-SVG-20010904/DTD/svg10.dtd">
<svg version="1.0" xmlns="http://www.w3.org/2000/svg"
 width="104.000000pt" height="104.000000pt" viewBox="0 0 104.000000 104.000000"
 preserveAspectRatio="xMidYMid meet">
<metadata>
Created by potrace 1.11, written by Peter Selinger 2001-2013
</metadata>
<g transform="translate(0.000000,104.000000) scale(0.100000,-0.100000)"
fill="#000000" stroke="none">
<path d="M380 1016 c-222 -65 -367 -249 -375 -476 -10 -290 209 -527 497 -535
152 -4 279 46 384 151 175 178 200 446 60 657 -120 180 -357 265 -566 203z
m280 -36 c110 -33 196 -96 261 -193 213 -320 -20 -752 -405 -749 -264 2 -477
218 -477 482 0 238 178 443 414 478 69 10 129 5 207 -18z"/>
<path d="M498 958 c-51 -78 -82 -192 -82 -305 -1 -46 -3 -83 -4 -83 -2 0 -21
15 -43 33 -52 45 -146 90 -189 91 -32 1 -35 -1 -32 -23 10 -65 83 -189 140
-234 24 -20 22 -37 -5 -33 -41 6 -173 -40 -189 -66 -4 -6 3 -19 15 -30 29 -22
146 -59 166 -52 19 8 19 -15 0 -40 -24 -32 -18 -46 18 -46 51 0 102 18 156 55
l51 34 2 -47 c0 -26 0 -54 0 -62 -1 -8 1 -26 4 -38 4 -20 7 -22 20 -11 11 9
14 30 12 85 -2 41 -3 74 -2 74 1 0 25 -16 54 -35 55 -37 106 -55 158 -55 36 0
41 13 16 48 -19 28 -16 32 27 39 50 7 135 42 150 59 11 13 9 19 -11 34 -33 25
-119 51 -193 59 -4 1 13 22 38 49 46 48 111 166 117 212 2 20 -2 26 -20 28
-32 5 -161 -58 -209 -101 l-39 -36 4 59 c2 33 -4 96 -13 142 -16 82 -70 208
-91 215 -6 2 -18 -7 -26 -19z m68 -142 c29 -91 35 -219 14 -296 -19 -71 -51
-150 -60 -150 -5 0 -18 25 -29 56 -61 162 -58 293 10 461 18 45 33 29 65 -71z
m-308 -183 c85 -41 172 -133 199 -210 12 -35 20 -63 19 -63 -32 0 -145 77
-196 133 -44 48 -104 167 -85 167 3 0 32 -12 63 -27z m592 16 c0 -27 -65 -130
-111 -177 -41 -40 -150 -112 -171 -112 -3 0 4 28 16 63 17 49 34 75 81 122 33
33 85 72 115 87 62 31 70 33 70 17z m-432 -303 l54 -23 -29 -11 c-73 -28 -170
-31 -243 -7 -27 9 -50 20 -50 24 0 15 96 40 155 40 41 0 77 -7 113 -23z m440
4 c17 -7 32 -16 32 -21 0 -15 -109 -41 -167 -40 -31 0 -78 8 -105 17 l-50 16
49 24 c41 21 59 23 128 20 44 -3 95 -10 113 -16z m-418 -91 c-26 -21 -57 -36
-102 -49 -25 -8 -27 -7 -18 10 9 18 50 47 50 36 0 -2 19 2 43 9 56 18 56 18
27 -6z m277 -36 c14 -22 14 -22 -16 -13 -37 10 -111 51 -111 61 0 15 114 -28
127 -48z"/>
</g>
</svg>
